name Run_500 01_newCOP3_v24.mot
datacolumns 19
datarows 66
range 1.191667 1.259375
DataType=double
version=3
OpenSimVersion=4.3-2021-08-27-4bc7ad9
endheader
time	R_ground_force_vx	R_ground_force_vy	R_ground_force_vz	R_ground_force_px	R_ground_force_py	R_ground_force_pz	L_ground_force_vx	L_ground_force_vy	L_ground_force_vz	L_ground_force_px	L_ground_force_py	L_ground_force_pz	R_ground_torque_x	R_ground_torque_y	R_ground_torque_z	L_ground_torque_x	L_ground_torque_y	L_ground_torque_z
1.191667	0	0	0	0	0	0	-0.115068	10.588725	2.575141	0	0	0	0	0	0	0	0	0
1.192708	0	0	0	0	0	0	-0.259299	10.373767	2.519107	0	0	0	0	0	0	0	0	0
1.19375	0	0	0	0	0	0	-0.402434	10.115943	2.448075	0	0	0	0	0	0	0	0	0
1.194792	0	0	0	0	0	0	0	0	0	0	0	0	0	0	0	0	0	0
1.195833	0	0	0	0	0	0	0	0	0	0	0	0	0	0	0	0	0	0
1.196875	0	0	0	0	0	0	0	0	0	0	0	0	0	0	0	0	0	0
1.197917	0	0	0	0	0	0	0	0	0	0	0	0	0	0	0	0	0	0
1.198958	0	0	0	0	0	0	0	0	0	0	0	0	0	0	0	0	0	0
1.2	0	0	0	0	0	0	0	0	0	0	0	0	0	0	0	0	0	0
1.201042	0	0	0	0	0	0	0	0	0	0	0	0	0	0	0	0	0	0
1.202083	0	0	0	0	0	0	0	0	0	0	0	0	0	0	0	0	0	0
1.203125	0	0	0	0	0	0	0	0	0	0	0	0	0	0	0	0	0	0
1.204167	0	0	0	0	0	0	0	0	0	0	0	0	0	0	0	0	0	0
1.205208	0	0	0	0	0	0	0	0	0	0	0	0	0	0	0	0	0	0
1.20625	0	0	0	0	0	0	0	0	0	0	0	0	0	0	0	0	0	0
1.207292	0	0	0	0	0	0	0	0	0	0	0	0	0	0	0	0	0	0
1.208333	0	0	0	0	0	0	0	0	0	0	0	0	0	0	0	0	0	0
1.209375	0	0	0	0	0	0	0	0	0	0	0	0	0	0	0	0	0	0
1.210417	0	0	0	0	0	0	0	0	0	0	0	0	0	0	0	0	0	0
1.211458	0	0	0	0	0	0	0	0	0	0	0	0	0	0	0	0	0	0
1.2125	0	0	0	0	0	0	0	0	0	0	0	0	0	0	0	0	0	0
1.213542	0	0	0	0	0	0	0	0	0	0	0	0	0	0	0	0	0	0
1.214583	0	0	0	0	0	0	0	0	0	0	0	0	0	0	0	0	0	0
1.215625	0	0	0	0	0	0	0	0	0	0	0	0	0	0	0	0	0	0
1.216667	0	0	0	0	0	0	0	0	0	0	0	0	0	0	0	0	0	0
1.217708	0	0	0	0	0	0	0	0	0	0	0	0	0	0	0	0	0	0
1.21875	0	0	0	0	0	0	0	0	0	0	0	0	0	0	0	0	0	0
1.219792	0	0	0	0	0	0	0	0	0	0	0	0	0	0	0	0	0	0
1.220833	0	0	0	0	0	0	0	0	0	0	0	0	0	0	0	0	0	0
1.221875	0	0	0	0	0	0	0	0	0	0	0	0	0	0	0	0	0	0
1.222917	0	0	0	0	0	0	0	0	0	0	0	0	0	0	0	0	0	0
1.223958	0	0	0	0	0	0	0	0	0	0	0	0	0	0	0	0	0	0
1.225	0	0	0	0	0	0	0	0	0	0	0	0	0	0	0	0	0	0
1.226042	0	0	0	0	0	0	0	0	0	0	0	0	0	0	0	0	0	0
1.227083	0	0	0	0	0	0	0	0	0	0	0	0	0	0	0	0	0	0
1.228125	0	0	0	0	0	0	0	0	0	0	0	0	0	0	0	0	0	0
1.229167	0	0	0	0	0	0	0	0	0	0	0	0	0	0	0	0	0	0
1.230208	0	0	0	0	0	0	0	0	0	0	0	0	0	0	0	0	0	0
1.23125	0	0	0	0	0	0	0	0	0	0	0	0	0	0	0	0	0	0
1.232292	0	0	0	0	0	0	0	0	0	0	0	0	0	0	0	0	0	0
1.233333	0	0	0	0	0	0	0	0	0	0	0	0	0	0	0	0	0	0
1.234375	0	0	0	0	0	0	0	0	0	0	0	0	0	0	0	0	0	0
1.235417	0	0	0	0	0	0	0	0	0	0	0	0	0	0	0	0	0	0
1.236458	0	0	0	0	0	0	0	0	0	0	0	0	0	0	0	0	0	0
1.2375	0	0	0	0	0	0	1.370596	10.317398	-0.108988	0	0	0	0	0	0	0	0	0
1.238542	0	0	0	0	0	0	1.070413	10.702845	-0.440665	0	0	0	0	0	0	0	0	0
1.239583	0	0	0	0	0	0	0.7289639999999999	11.174249	-0.788361	0	0	0	0	0	0	0	0	0
1.240625	0	0	0	0	0	0	0.346096	11.752925	-1.150068	0	0	0	0	0	0	0	0	0
1.241667	0	0	0	0	0	0	-0.07844	12.463193	-1.523839	0	0	0	0	0	0	0	0	0
1.242708	0	0	0	0	0	0	-0.545125	13.332655	-1.907828	0	0	0	0	0	0	0	0	0
1.24375	0	0	0	0	0	0	-1.054819	14.3925	-2.300329	0	0	0	0	0	0	0	0	0
1.244792	0	0	0	0	0	0	-1.608881	15.677833	-2.699807	1.134107	0	-0.187554	0	0	0	0	-2.745002	0
1.245833	0	0	0	0	0	0	-2.209266	17.228004	-3.104914	1.127184	0	-0.204432	0	0	0	0	-2.357004	0
1.246875	0	0	0	0	0	0	-2.858598	19.086945	-3.514495	1.121698	0	-0.220565	0	0	0	0	-1.949755	0
1.247917	0	0	0	0	0	0	-3.560188	21.303482	-3.927583	1.117705	0	-0.235681	0	0	0	0	-1.52727	0
1.248958	0	0	0	0	0	0	-4.318013	23.931608	-4.34338	1.115172	0	-0.249586	0	0	0	0	-1.093978	0
1.25	0	0	0	0	0	0	-5.13664	27.030724	-4.761231	1.113998	0	-0.262169	0	0	0	0	-0.654722	0
1.251042	0	0	0	0	0	0	-6.021105	30.665775	-5.180584	1.114023	0	-0.273392	0	0	0	0	-0.214753	0
1.252083	0	0	0	0	0	0	-6.976739	34.907349	-5.600942	1.115057	0	-0.283279	0	0	0	-0	0.220282	-0
1.253125	0	0	0	0	0	0	-8.008956	39.831623	-6.021805	1.116895	0	-0.291897	0	0	0	-0	0.644367	-0
1.254167	0	0	0	0	0	0	-9.123010000000001	45.520229	-6.44262	1.119336	0	-0.299342	0	0	0	-0	1.051139	-0
1.255208	0	0	0	0	0	0	-10.323742	52.059994	-6.862711	1.122191	0	-0.305726	0	0	0	-0	1.433939	-0
1.25625	0	0	0	0	0	0	-11.615325	59.542496	-7.281223	1.125295	0	-0.311166	0	0	0	-0	1.785863	-0
1.257292	0	0	0	0	0	0	-13.001032	68.063484	-7.697065	1.128507	0	-0.315774	0	0	0	-0	2.099828	-0
1.258333	0	0	0	0	0	0	-14.483047	77.722137	-8.108859000000001	1.13171	0	-0.319658	0	0	0	-0	2.36866	-0
1.259375	0	0	0	0	0	0	-16.062323	88.620064	-8.514900000000001	1.134816	0	-0.322915	0	0	0	-0	2.585189	-0
